<svg xmlns="http://www.w3.org/2000/svg">
	<symbol viewBox="0 0 512 512" id="electric">
		<title>Centro de ventas de herramientas eléctricas</title><path d="m216.438 30h-122.938c-9.649 0-17.5 7.851-17.5 17.5v185.351c0 4.143 3.357 7.5 7.5 7.5s7.5-3.357 7.5-7.5v-185.351c0-1.379 1.121-2.5 2.5-2.5h122.938c4.143 0 7.5-3.357 7.5-7.5s-3.358-7.5-7.5-7.5z"/><path d="m76 322.5c0 9.649 7.851 17.5 17.5 17.5h325c9.649 0 17.5-7.851 17.5-17.5v-275c0-9.649-7.851-17.5-17.5-17.5h-167.062c-4.143 0-7.5 3.357-7.5 7.5s3.357 7.5 7.5 7.5h167.062c1.379 0 2.5 1.121 2.5 2.5v275c0 1.379-1.121 2.5-2.5 2.5h-325c-1.379 0-2.5-1.121-2.5-2.5v-54.649c0-4.143-3.357-7.5-7.5-7.5s-7.5 3.357-7.5 7.5z"/><path d="m504.5 497h-163.5c-12.406 0-22.5-10.094-22.5-22.5v-104.5h15v101.5c0 5.79 4.71 10.5 10.5 10.5h160.5c4.143 0 7.5-3.357 7.5-7.5s-3.357-7.5-7.5-7.5h-156v-58h44c9.649 0 17.5-7.851 17.5-17.5v-21.5h18.5c20.678 0 37.5-16.822 37.5-37.5v-147.606c0-4.143-3.357-7.5-7.5-7.5s-7.5 3.357-7.5 7.5v147.606c0 12.406-10.094 22.5-22.5 22.5-33.625 0-311.95 0-345 0-12.406 0-22.5-10.094-22.5-22.5v-295c0-12.406 10.094-22.5 22.5-22.5h345c12.406 0 22.5 10.094 22.5 22.5v112.394c0 4.143 3.357 7.5 7.5 7.5s7.5-3.357 7.5-7.5v-112.394c0-20.678-16.822-37.5-37.5-37.5h-345c-20.678 0-37.5 16.822-37.5 37.5v295c0 20.678 16.822 37.5 37.5 37.5h18.5v21.5c0 9.649 7.851 17.5 17.5 17.5h44v58h-54c-4.143 0-7.5 3.357-7.5 7.5s3.357 7.5 7.5 7.5h58.5c5.79 0 10.5-4.71 10.5-10.5v-101.5h15v104.5c0 12.406-10.094 22.5-22.5 22.5h-163.5c-4.143 0-7.5 3.357-7.5 7.5s3.357 7.5 7.5 7.5h163.5c20.678 0 37.5-16.822 37.5-37.5v-65.5h25v95.5c0 4.143 3.357 7.5 7.5 7.5s7.5-3.357 7.5-7.5v-134.5h15v134.5c0 4.143 3.357 7.5 7.5 7.5s7.5-3.357 7.5-7.5v-95.5h25v65.5c0 20.678 16.822 37.5 37.5 37.5h163.5c4.143 0 7.5-3.357 7.5-7.5s-3.357-7.5-7.5-7.5zm-109.5-105.5c0 1.379-1.121 2.5-2.5 2.5h-44v-24h46.5zm-231.5 2.5h-44c-1.379 0-2.5-1.121-2.5-2.5v-21.5h46.5zm70 0h-25v-24h25zm45 0v-24h25v24z"/><path d="m7.5 482h67c4.143 0 7.5-3.357 7.5-7.5s-3.357-7.5-7.5-7.5h-67c-4.143 0-7.5 3.357-7.5 7.5s3.357 7.5 7.5 7.5z"/><path d="m214.059 216.967h20.59l-12.722 29.425c-2.226 5.149-1.715 11.022 1.366 15.71s8.269 7.486 13.878 7.486c5.197 0 10.163-2.482 13.282-6.639l47.924-63.86c2.987-3.979 3.461-9.215 1.236-13.666-2.224-4.45-6.696-7.215-11.672-7.215h-20.591l12.721-29.424c2.227-5.149 1.717-11.022-1.363-15.71-3.081-4.688-8.269-7.486-13.879-7.486-5.196 0-10.162 2.481-13.282 6.638l-47.924 63.86c-2.987 3.979-3.461 9.215-1.236 13.666 2.223 4.45 6.696 7.215 11.672 7.215zm49.485-75.737c.302-.402.782-.643 1.285-.643.717 0 1.126.394 1.343.724s.416.862.132 1.52l-17.251 39.9c-1.003 2.318-.771 4.984.616 7.096 1.387 2.11 3.742 3.381 6.268 3.381h28.101l-45.582 60.738c-.302.401-.781.642-1.284.642-.717 0-1.126-.394-1.343-.725-.217-.33-.417-.862-.133-1.52l17.251-39.9c1.003-2.318.771-4.984-.616-7.096-1.387-2.11-3.742-3.381-6.268-3.381h-28.1z"/><path d="m169.323 297.564h173.354c28.306.726 46.858-32.248 32.476-56.25l-86.677-150.128c-14.558-25.616-51.445-23.958-64.951 0l-86.677 150.129c-14.844 25.531 4.937 56.479 32.475 56.249zm-19.485-48.75 86.677-150.129c7.614-14.318 30.604-15.047 38.971 0l86.677 150.129c8.536 13.621-2.231 34.079-19.485 33.75h-173.355c-16.222.541-28.274-18.87-19.485-33.75z"/><path d="m137.5 145c4.143 0 7.5-3.357 7.5-7.5v-15.409c13.759-3.374 24-15.806 24-30.591 0-17.369-14.131-31.5-31.5-31.5s-31.5 14.131-31.5 31.5c0 14.785 10.241 27.216 24 30.591v15.409c0 4.143 3.357 7.5 7.5 7.5zm-16.5-53.5c0-9.098 7.402-16.5 16.5-16.5s16.5 7.402 16.5 16.5-7.402 16.5-16.5 16.5-16.5-7.402-16.5-16.5z"/>
	</symbol>
	<symbol viewBox="0 0 512 512" id="repair">
		<title>Centro de reparación de herramientas</title><path d="m347.339844 155.148438c-5.519532 0-10 4.46875-10 9.996093 0 5.523438 4.480468 10 10 10 5.53125 0 10-4.476562 10-10 0-5.527343-4.46875-9.996093-10-9.996093zm0 0"/><path d="m165.644531 336.839844c-5.53125 0-10 4.480468-10 10 0 5.53125 4.46875 10 10 10 5.519531 0 10-4.46875 10-10 0-5.519532-4.480469-10-10-10zm0 0"/><path d="m500.058594 61.519531c-3.375-.785156-6.921875.234375-9.359375 2.695313l-41.457031 41.785156h-19.875l-21.878907-22.667969v-20.152343l40.863281-41.472657c2.417969-2.453125 3.402344-5.980469 2.601563-9.335937-.796875-3.351563-3.265625-6.054688-6.53125-7.15625-10.265625-3.460938-21.007813-5.214844-31.933594-5.214844-32.570312 0-62.160156 15.1875-81.183593 41.667969-17.804688 24.789062-23.292969 55.167969-15.429688 84.242187l-73.660156 73.660156-122.71875-123v-24.140624c0-3.511719-1.84375-6.769532-4.855469-8.574219l-70.707031-42.429688c-3.9375-2.363281-8.972656-1.742187-12.214844 1.503907l-28.28125 28.277343c-3.242188 3.246094-3.863281 8.28125-1.503906 12.21875l42.421875 70.707031c1.804687 3.011719 5.058593 4.851563 8.570312 4.855469l24.132813.007813 122.730468 123-73.378906 73.378906c-29.074218-7.859375-59.46875-2.363281-84.269531 15.453125-26.464844 19.011719-41.640625 48.59375-41.640625 81.164063 0 10.921874 1.753906 21.667968 5.214844 31.929687 1.105468 3.285156 3.835937 5.765625 7.210937 6.546875 3.378907.785156 6.921875-.234375 9.363281-2.695312l41.453126-41.78125h19.984374l22.769532 22.769531v19.984375l-41.78125 41.453125c-2.460938 2.441406-3.480469 5.984375-2.695313 9.363281.78125 3.375 3.261719 6.105469 6.546875 7.210938 10.261719 3.460937 21.007813 5.214843 31.929688 5.214843 32.570312 0 62.148437-15.179687 81.164062-41.644531 17.816406-24.800781 23.3125-55.191406 15.453125-84.265625l58.933594-58.933594 13.5 14.664063-6.195313 6.191406c-3.90625 3.90625-3.90625 10.238281 0 14.144531 3.90625 3.902344 10.234376 3.902344 14.144532 0l5.609375-5.609375 126.664062 137.585938c.09375.101562.191407.199218.289063.296875 23.4375 23.4375 61.410156 23.445312 84.859375-.003907 23.382812-23.394531 23.382812-61.460937 0-84.855468-.101563-.101563-.207031-.199219-.3125-.296875l-137.800781-126.421875 5.546874-5.546875c3.90625-3.902344 3.90625-10.234375 0-14.140625s-10.234374-3.90625-14.144531 0l-6.152343 6.15625-14.691407-13.484375 59.21875-59.21875c8.417969 2.25 17.105469 3.390625 25.90625 3.390625 55.140625 0 99.996094-44.859375 99.996094-99.996094 0-10.925781-1.753906-21.667969-5.214844-31.933594-1.105469-3.285156-3.835937-5.765625-7.210937-6.546875zm-411.773438 40.414063c-1.875-1.878906-4.417968-2.835938-7.074218-2.835938l-22.617188-.007812-35.492188-59.257813 17.238282-17.238281 59.15625 35.5v22.617188c0 2.648437 1.050781 5.1875 2.921875 7.0625l125.65625 125.941406-14.144531 14.140625zm254.363282 195.0625 138.269531 126.847656c15.445312 15.609375 15.398437 40.882812-.144531 56.433594-15.578126 15.578125-40.796876 15.625-56.4375.136718l-127.078126-138.035156zm-14.75-13.535156-44.199219 44.191406-13.5-14.664063 43.007812-43.011719zm84.589843-103.464844c-8.746093 0-17.347656-1.402344-25.558593-4.167969-3.597657-1.207031-7.574219-.277344-10.261719 2.40625-50.132813 50.132813-158.15625 158.152344-197.933594 197.933594-2.6875 2.6875-3.621094 6.664062-2.40625 10.265625 8.3125 24.683594 4.335937 51.011718-10.914063 72.242187-15.207031 21.167969-38.871093 33.3125-64.917968 33.3125-2.925782 0-5.835938-.160156-8.71875-.46875l31.761718-31.515625c1.890626-1.875 2.957032-4.429687 2.957032-7.097656v-28.289062c0-2.652344-1.054688-5.195313-2.929688-7.070313l-28.628906-28.628906c-1.875-1.875-4.417969-2.929688-7.070312-2.929688h-28.289063c-2.667969 0-5.222656 1.066407-7.101563 2.957031l-31.511718 31.761719c-.3125-2.882812-.46875-5.792969-.46875-8.71875 0-26.050781 12.140625-49.710937 33.3125-64.917969 21.226562-15.25 47.558594-19.230468 72.246094-10.914062 3.597656 1.214844 7.574218.28125 10.261718-2.40625.550782-.546875 197.792969-197.792969 197.933594-197.933594 2.6875-2.6875 3.617188-6.660156 2.40625-10.261718-8.316406-24.683594-4.347656-51.003907 10.890625-72.21875 15.21875-21.1875 38.886719-33.335938 64.9375-33.335938 3.015625 0 6.011719.167969 8.980469.496094l-31.101563 31.566406c-1.84375 1.871094-2.875 4.390625-2.875 7.015625v28.289063c0 2.59375 1.003907 5.082031 2.804688 6.945312l27.628906 28.628906c1.882813 1.953125 4.480469 3.054688 7.195313 3.054688h28.289062c2.664062 0 5.21875-1.0625 7.097656-2.957032l31.511719-31.757812c.3125 2.882812.46875 5.792969.46875 8.71875 0 44.109375-35.886719 79.996094-79.996094 79.996094zm0 0"/><path d="m311.988281 186.355469-125.136719 125.136719c-3.902343 3.902343-3.902343 10.234374 0 14.140624 3.90625 3.90625 10.238282 3.90625 14.144532 0l125.136718-125.136718c3.90625-3.902344 3.90625-10.234375 0-14.140625s-10.238281-3.90625-14.144531 0zm0 0"/><path d="m438.355469 452c3.90625 3.894531 10.238281 3.894531 14.144531-.023438 3.898438-3.910156 3.886719-10.242187-.023438-14.140624l-90.136718-89.847657c-3.910156-3.898437-10.246094-3.886719-14.140625.023438-3.902344 3.914062-3.890625 10.242187.019531 14.140625zm0 0"/>
	</symbol>
	<symbol viewBox="0 0 512 512" id="smarthome">
		<title>Venta de artículos de Smart Home</title><path d="m340.851 275.151c-4.097 0-8.191-1.563-11.316-4.689-19.634-19.643-45.749-30.461-73.533-30.461s-53.899 10.818-73.533 30.461c-6.247 6.25-16.379 6.252-22.628.005s-6.252-16.378-.005-22.627c25.679-25.69 59.831-39.839 96.166-39.839s70.487 14.148 96.166 39.839c6.247 6.25 6.244 16.38-.005 22.627-3.125 3.122-7.22 4.684-11.312 4.684z"/><path d="m301.261 314.741c-4.095 0-8.189-1.562-11.313-4.686-9.063-9.063-21.118-14.054-33.946-14.054s-24.883 4.991-33.946 14.054c-6.248 6.248-16.379 6.248-22.627 0-6.249-6.249-6.249-16.379 0-22.627 15.106-15.107 35.198-23.427 56.573-23.427s41.467 8.32 56.573 23.427c6.249 6.248 6.249 16.379 0 22.627-3.125 3.124-7.219 4.686-11.314 4.686z"/><path d="m256.001 384.001c-13.233 0-24-10.767-24-24s10.767-24 24-24 24 10.767 24 24-10.767 24-24 24z"/><path d="m505.463 179.099-240-176c-5.633-4.13-13.291-4.13-18.924 0l-240 176c-7.126 5.226-8.666 15.238-3.44 22.364 5.227 7.126 15.24 8.667 22.364 3.44l6.538-4.795v265.892c0 25.364 20.636 46 46 46h356c25.364 0 46-20.636 46-46v-265.891l6.538 4.795c2.852 2.091 6.165 3.099 9.449 3.099 4.923 0 9.78-2.265 12.915-6.539 5.226-7.127 3.686-17.14-3.44-22.365zm-57.462 286.902c0 7.72-6.28 14-14 14h-356c-7.72 0-14-6.28-14-14v-289.359l192-140.8 192 140.8z"/>
	</symbol>
	<symbol viewBox="0 0 512 512" id="supply">
		<title>Proveedores de departamento de mantenimiento de empresas</title><path d="M486.24,216.93A23.93,23.93,0,0,0,488,208V32A24,24,0,0,0,464,8H272a24,24,0,0,0-24,24V208a23.93,23.93,0,0,0,1.76,8.93A24,24,0,0,0,232,240v40H216v32H200v26l-54,15.43a175,175,0,0,0-10-15.93V279.69a35,35,0,0,0,32-35V229.77l24-8V216c0-16.54-9.63-38.8-17.7-54.55a33.16,33.16,0,0,0-2.72-4.35A44,44,0,0,0,156,72H114.89A106.9,106.9,0,0,0,67.08,274.5L72,277v13.51l-4.78,1.79A91.71,91.71,0,0,0,8.06,376H8V504H168V458.17l32-11.47V504H304a24,24,0,0,0,24-24V360h17.47a23.85,23.85,0,0,0-1.47,8v96a24,24,0,0,0,24,24h96a24,24,0,0,0,24-24V368a23.93,23.93,0,0,0-1.76-8.93A24,24,0,0,0,504,336V240A24,24,0,0,0,486.24,216.93ZM344,24h48V56H344Zm-80,8a8,8,0,0,1,8-8h56V72h80V24h56a8,8,0,0,1,8,8V208a8,8,0,0,1-8,8H272a8,8,0,0,1-8-8ZM424,232h16v16H424Zm-128,0h16v16H296Zm-64,64h72a8,8,0,0,1,0,16H232ZM100.19,423.12l114.07-32.59L220,373.26a14.63,14.63,0,0,1,24.22-5.72l8.45,8.46h12.57A14.77,14.77,0,0,1,280,390.75a15,15,0,0,1-11.31,14.37L138.91,451.6a75.32,75.32,0,0,1-25.37,4.4H102.8a75.19,75.19,0,0,1-29.42-6.07ZM200,354.61V378l-39.08,11.16A172.2,172.2,0,0,0,153.28,368ZM175.55,210.38,152,218.24V244.7A19.32,19.32,0,0,1,132.69,264L104,264v16h16v38.13a172.2,172.2,0,0,0-32-26.39V228.69L74.34,215A8,8,0,0,1,72,209.37V208a8,8,0,0,1,8-8h8V176a16,16,0,0,1,16-16h41.78a16,16,0,0,1,14.28,8.74c8.6,16.78,14,31.26,15.49,41.64ZM24,178.89A91,91,0,0,1,114.89,88H156a28,28,0,0,1,0,56H104a32,32,0,0,0-32,32v9.37A24,24,0,0,0,56,208v1.37a23.85,23.85,0,0,0,7,17l9,9v23.55a90.29,90.29,0,0,1-48-80ZM72.84,307.23l6.13-2.3a157.56,157.56,0,0,1,66.59,88.59L101.17,406.2,98,396.75a67.77,67.77,0,0,0-48.08-44.51l-3.88,15.52a51.86,51.86,0,0,1,36.78,34.06l4,12-28,28c-1.72-1.24-3.41-2.55-5-3.94l-3.53-3A75.27,75.27,0,0,1,72.84,307.23ZM152,488H24V429.1A90.91,90.91,0,0,0,39.87,447l3.54,3a91.29,91.29,0,0,0,59.39,22h10.74a91.13,91.13,0,0,0,30.77-5.34L152,463.9Zm152,0H216V441l57.54-20.62A30.74,30.74,0,0,0,265.26,360h-5.95l-3.77-3.77a30.44,30.44,0,0,0-31.33-7.41,30.06,30.06,0,0,0-8.21,4.44V328h88a23.85,23.85,0,0,0,8-1.47V480A8,8,0,0,1,304,488Zm24-184a24,24,0,0,0-24-24H248V240a8,8,0,0,1,8-8h24v32h48V232h24a8,8,0,0,1,8,8v96a8,8,0,0,1-8,8H328ZM472,464a8,8,0,0,1-8,8H368a8,8,0,0,1-8-8V368a8,8,0,0,1,8-8h24v32h48V360h24a8,8,0,0,1,8,8ZM408,360h16v16H408Zm80-24a8,8,0,0,1-8,8H384a8,8,0,0,1-8-8V240a8,8,0,0,1,8-8h24v32h48V232h24a8,8,0,0,1,8,8Z"/><path d="M408,184h16v16H408Z"/><path d="M440,184h16v16H440Z"/><path d="M376,184h16v16H376Z"/><path d="M376,152h80v16H376Z"/>
	</symbol>
</svg>